<svg xmlns="http://www.w3.org/2000/svg" viewBox="0 0 800 500" role="img" aria-label="Reception floor plan placeholder">
  <rect width="800" height="500" fill="#f7f3ee"/>
  <rect x="40" y="40" width="720" height="420" rx="12" fill="#fff" stroke="#d4c4a8" stroke-width="2"/>
  <rect x="300" y="60" width="200" height="70" rx="8" fill="#e8dfd0" stroke="#c9b896"/>
  <text x="400" y="105" text-anchor="middle" font-family="Georgia, serif" font-size="22" fill="#5c5348">STAGE</text>
  <rect x="320" y="400" width="160" height="40" rx="6" fill="#e8dfd0" stroke="#c9b896"/>
  <text x="400" y="428" text-anchor="middle" font-family="Georgia, serif" font-size="18" fill="#5c5348">ENTRANCE</text>
  <rect x="60" y="160" width="100" height="120" rx="8" fill="#e8dfd0" stroke="#c9b896"/>
  <text x="110" y="225" text-anchor="middle" font-family="Georgia, serif" font-size="16" fill="#5c5348">BAR</text>
  <g font-family="Georgia, serif" font-size="14" fill="#6b7a6f">
    <circle cx="180" cy="280" r="28" fill="#fff" stroke="#9ab69d" stroke-width="2"/>
    <text x="180" y="285" text-anchor="middle">1</text>
    <circle cx="280" cy="280" r="28" fill="#fff" stroke="#9ab69d" stroke-width="2"/>
    <text x="280" y="285" text-anchor="middle">2</text>
    <circle cx="380" cy="280" r="28" fill="#fff" stroke="#9ab69d" stroke-width="2"/>
    <text x="380" y="285" text-anchor="middle">3</text>
    <circle cx="480" cy="280" r="28" fill="#fff" stroke="#9ab69d" stroke-width="2"/>
    <text x="480" y="285" text-anchor="middle">4</text>
    <circle cx="580" cy="280" r="28" fill="#fff" stroke="#9ab69d" stroke-width="2"/>
    <text x="580" y="285" text-anchor="middle">5</text>
    <circle cx="180" cy="360" r="28" fill="#fff" stroke="#9ab69d" stroke-width="2"/>
    <text x="180" y="365" text-anchor="middle">6</text>
    <circle cx="280" cy="360" r="28" fill="#fff" stroke="#9ab69d" stroke-width="2"/>
    <text x="280" y="365" text-anchor="middle">7</text>
    <circle cx="380" cy="360" r="28" fill="#fff" stroke="#9ab69d" stroke-width="2"/>
    <text x="380" y="365" text-anchor="middle">8</text>
    <circle cx="480" cy="360" r="28" fill="#fff" stroke="#9ab69d" stroke-width="2"/>
    <text x="480" y="365" text-anchor="middle">9</text>
    <circle cx="580" cy="360" r="28" fill="#fff" stroke="#9ab69d" stroke-width="2"/>
    <text x="580" y="365" text-anchor="middle">10</text>
  </g>
</svg>
